# xmcd CD database file
#
# Track frame offsets:
#	150
#	27392
#	51327
#	74057
#	81125
#	101012
#	138434
#	145581
#	178710
#	198462
#
# Disc length: 3073 seconds
#
# Revision: 0
# Processed by: cddbd v1.5.1PL0 Copyright (c) Steve Scherf et al.
# Submitted via: CDex 1.51
#
DISCID=940bff0a
DTITLE=Kitaro - World Of Kita[Vol07][Fairy Stories]
DYEAR=2000
DGENRE=New Age
TTITLE0=Mysterious Encounter
TTITLE1=Flying Celestial Nymphs
TTITLE2=Contortionists
TTITLE3=The Tailor
TTITLE4=Costume Shop
TTITLE5=Lady Of Dreams
TTITLE6=The Wizard
TTITLE7=Galina
TTITLE8=Linden
TTITLE9=Orochi
EXTD=YEAR: 2000
EXTT0=
EXTT1=
EXTT2=
EXTT3=
EXTT4=
EXTT5=
EXTT6=
EXTT7=
EXTT8=
EXTT9=
PLAYORDER=
